<svg xmlns="http://www.w3.org/2000/svg" viewBox="0 0 96 96">
  <defs>
    <linearGradient id="bg" x1="0" y1="0" x2="1" y2="1">
      <stop offset="0" stop-color="#9dd609" />
      <stop offset="1" stop-color="#8dc90a" />
    </linearGradient>
    <filter id="soft" x="-20%" y="-20%" width="140%" height="140%">
      <feGaussianBlur stdDeviation="0.3" />
    </filter>
  </defs>

  <rect width="96" height="96" fill="url(#bg)" />

  <g fill="#88c507" opacity="0.6">
    <ellipse cx="15" cy="18" rx="8" ry="2.2" />
    <ellipse cx="62" cy="14" rx="10" ry="2.4" />
    <ellipse cx="80" cy="37" rx="7" ry="2.1" />
    <ellipse cx="22" cy="47" rx="10" ry="2.3" />
    <ellipse cx="46" cy="68" rx="8" ry="2.1" />
    <ellipse cx="77" cy="78" rx="9" ry="2.4" />
  </g>

  <g fill="#98d808" stroke="#a6e31b" stroke-width="0.8" stroke-linejoin="round" filter="url(#soft)">
    <path d="M8 16l3-8 2 6 5-6-1 7 7-3-4 6 7 1-6 3 3 6-6-3-1 8-4-7-5 5 1-7-6 1 4-5-6-3 7-1z" />
    <path d="M57 10l2-6 2 5 5-4-2 6 6 1-5 3 3 5-5-2-2 6-3-5-5 4 1-6-6-2 5-2z" />
    <path d="M70 27l3-7 2 6 6-5-2 7 7 2-6 2 3 6-6-2-2 7-3-6-6 5 2-7-7-2 6-2z" />
    <path d="M31 34l2-6 3 5 6-4-2 7 7 1-6 3 4 5-6-2-2 7-4-6-5 4 1-6-7-2 6-2z" />
    <path d="M12 60l3-8 2 6 5-5-2 7 7 1-6 3 4 6-7-2-1 7-4-6-6 4 2-7-7-1 6-3z" />
    <path d="M52 55l2-7 3 6 6-5-2 7 7 2-6 2 4 6-7-2-2 7-3-6-6 5 2-7-7-2 6-2z" />
    <path d="M74 61l2-6 2 5 5-4-1 6 6 1-5 3 3 5-6-2-1 6-3-5-5 4 1-6-6-1 5-2z" />
    <path d="M33 78l3-8 2 6 6-5-2 7 7 2-6 2 4 6-7-2-2 7-3-6-6 5 2-7-7-2 6-2z" />
    <path d="M66 83l2-6 2 5 5-4-1 6 6 1-5 3 3 5-6-2-1 6-3-5-5 4 1-6-6-1 5-2z" />
  </g>
</svg>
